<svg width="73" height="125" viewBox="0 0 73 125" fill="none" xmlns="http://www.w3.org/2000/svg">
<path d="M69.6878 3.10242C47.7517 5.14598 51.8399 4.33982 33.0273 15.9064C28.7306 18.5481 22.3081 21.8526 20.4765 26.1019C17.7736 32.3725 28.3099 49.9111 37.2407 42.4758C43.0124 37.6707 42.8037 30.192 34.9575 28.8103C22.0903 26.5445 10.4207 37.0485 5.41135 45.7367C-0.10365 55.3018 2.61245 65.0961 12.6142 70.4355C17.1833 72.8748 25.1777 71 21.5093 65.358C13.9641 53.7533 2.10984 69.4386 2.62119 77.4928C3.54221 91.9999 22.5568 109.695 42.617 105.123C48.8891 103.693 47.1021 101.712 44.683 100.33C42.2283 98.9275 36.2519 93.5781 37.7865 95.6655C40.4692 99.3147 44.2344 100.578 48.3831 102.524C53.734 105.034 40.8869 112.396 37.1186 114.962C35.1405 116.308 32.1643 119.214 31.4531 121.217C30.0486 125.174 38.2661 114.488 39.9512 110.578" stroke="#00ADB5" stroke-opacity="0.2" stroke-width="5" stroke-linecap="round" stroke-linejoin="round"/>
</svg>
